<?xml version="1.0" encoding="UTF-8"?>
<svg width="40px" height="28px" viewBox="0 0 40 28" version="1.1" xmlns="http://www.w3.org/2000/svg" xmlns:xlink="http://www.w3.org/1999/xlink">
    <!-- Generator: Sketch 47 (45396) - http://www.bohemiancoding.com/sketch -->
    <title>Group</title>
    <desc>Created with Sketch.</desc>
    <defs></defs>
    <g id="Page-1" stroke="none" stroke-width="1" fill="none" fill-rule="evenodd">
        <g id="Group" fill-rule="nonzero" fill="#000000">
            <g id="Shape">
                <path d="M0,6.2578617 C0,5.0108791 1.013885,4 2.2441952,4 L9.2483747,4 C9.6634859,4 10.2548329,3.7734818 10.5608295,3.5014849 L13.9391705,0.4985151 C14.2489081,0.2231928 14.8412703,0 15.2560745,0 L24.7439255,0 C25.1614939,0 25.7548329,0.2265182 26.0608295,0.4985151 L29.4391705,3.5014849 C29.7489081,3.7768072 30.3327179,4 30.7516253,4 L37.7558048,4 C38.9952396,4 40,5.0006946 40,6.2578617 L40,25.7421383 C40,26.9891209 38.9912248,28 37.7492874,28 L2.2507126,28 C1.0076784,28 0,26.9993054 0,25.7421383 L0,6.2578617 Z M2,1.2452393 C2,1.1097974 2.1044321,1 2.2411604,1 L6.7588396,1 C6.8920288,1 7,1.1075287 7,1.2452393 L7,2.7547607 C7,2.8902026 6.8955679,3 6.7588396,3 L2.2411604,3 C2.1079712,3 2,2.8924713 2,2.7547607 L2,1.2452393 Z M20,24 C24.9705627,24 29,19.9705627 29,15 C29,10.0294373 24.9705627,6 20,6 C15.0294373,6 11,10.0294373 11,15 C11,19.9705627 15.0294373,24 20,24 Z M20,22 C16.1340068,22 13,18.8659932 13,15 C13,11.1340068 16.1340068,8 20,8 C23.8659932,8 27,11.1340068 27,15 C27,18.8659932 23.8659932,22 20,22 Z M32,8.2557783 C32,8.1145159 32.1139402,8 32.2557783,8 L34.7442217,8 C34.8854841,8 35,8.1139402 35,8.2557783 L35,10.7442217 C35,10.8854841 34.8860598,11 34.7442217,11 L32.2557783,11 C32.1145159,11 32,10.8860598 32,10.7442217 L32,8.2557783 Z"></path>
            </g>
        </g>
    </g>
</svg>